<?xml version="1.0" encoding="utf-8"?>
<!-- Generator: Adobe Illustrator 15.1.0, SVG Export Plug-In . SVG Version: 6.00 Build 0)  -->
<!DOCTYPE svg PUBLIC "-//W3C//DTD SVG 1.1//EN" "http://www.w3.org/Graphics/SVG/1.1/DTD/svg11.dtd">
<svg version="1.1"
	 id="Layer_1" sodipodi:docname="paw.svg" xmlns:inkscape="http://www.inkscape.org/namespaces/inkscape" xmlns:sodipodi="http://sodipodi.sourceforge.net/DTD/sodipodi-0.dtd" xmlns:svg="http://www.w3.org/2000/svg" xmlns:rdf="http://www.w3.org/1999/02/22-rdf-syntax-ns#" xmlns:cc="http://creativecommons.org/ns#" xmlns:dc="http://purl.org/dc/elements/1.1/" inkscape:version="0.48.2 r9819"
	 xmlns="http://www.w3.org/2000/svg" xmlns:xlink="http://www.w3.org/1999/xlink" x="0px" y="0px" width="80px" height="80px"
	 viewBox="0 0 96 96" enable-background="new 0 0 96 96" xml:space="preserve">
<sodipodi:namedview  id="namedview15" pagecolor="#ffffff" borderopacity="1" bordercolor="#666666" objecttolerance="10" gridtolerance="10" guidetolerance="10" inkscape:pageopacity="0" inkscape:pageshadow="2" inkscape:window-width="1457" inkscape:window-height="1093" showgrid="false" inkscape:zoom="1" inkscape:cx="150" inkscape:cy="150" inkscape:window-x="0" inkscape:window-y="0" inkscape:window-maximized="0" inkscape:current-layer="Layer_1">
	</sodipodi:namedview>
<g id="g3" transform="matrix(0.31743207,0,0,0.31743207,0.83545784,0.87339923)">
	<g id="g5">
		<g id="use10">
			<path id="SVGID_1_" inkscape:connector-curvature="0" fill="#728C8C" d="M236.863,73.901
				c-9.008,31.48-32.226,52.447-51.86,46.834c-19.625-5.616-28.239-35.699-19.231-67.179c9.02-31.487,32.232-52.453,51.863-46.839
				C237.263,12.339,245.871,42.415,236.863,73.901L236.863,73.901z M98.349,1.008C78.185,4.232,66.027,33.055,71.187,65.392
				c5.162,32.338,25.691,55.942,45.853,52.723c20.166-3.215,32.332-32.043,27.16-64.378C139.048,21.397,118.511-2.212,98.349,1.008
				L98.349,1.008z M21.383,90.083C2.647,97.542-3.706,125.786,7.194,153.169c10.898,27.38,34.924,43.532,53.662,36.078
				c18.734-7.46,25.087-35.708,14.184-63.092C64.138,98.776,40.114,82.623,21.383,90.083L21.383,90.083z M278.475,110.363
				c-18.542-7.931-42.966,7.611-54.552,34.712s-5.95,55.496,12.595,63.421c18.542,7.931,42.963-7.611,54.545-34.715
				C302.656,146.682,297.011,118.287,278.475,110.363L278.475,110.363z M234.605,280.097c22.883-24.304-39.526-124.83-85.294-126.91
				c-47.848-2.172-120.674,106.107-95.711,131.075c24.968,24.962,70.744,4.159,95.711,0
				C174.276,280.097,199.303,317.605,234.605,280.097L234.605,280.097z"/>
		</g>
	</g>
</g>
</svg>
